# xmcd CD database file
#
# Track frame offsets:
#	150
#	17277
#	39857
#	57995
#	73320
#	88900
#	90380
#	106167
#	129505
#	136390
#	144670
#	161430
#	182515
#
# Disc length: 2686 seconds
#
# Revision: 0
# Processed by: cddbd v1.5.1PL0 Copyright (c) Steve Scherf et al.
# Submitted via: CDex 1.51
#
DISCID=a60a7c0d
DTITLE=The High Llamas - Beet, Maize and Corn
DYEAR=2003
DGENRE=Pop
TTITLE0=Barny Mix
TTITLE1=Calloway
TTITLE2=The Click And The Fizz
TTITLE3=Porter Dimi
TTITLE4=Leaf And Lime
TTITLE5=Alexander Line
TTITLE6=High On The Chalk
TTITLE7=Rotary Hop
TTITLE8=Ribbons And Hi Hats
TTITLE9=The Holly Hills
TTITLE10=Monnie
TTITLE11=The Walworth River
TTITLE12=Farringdon Turn*
EXTD=YEAR: 2003
EXTT0=
EXTT1=
EXTT2=
EXTT3=
EXTT4=
EXTT5=
EXTT6=
EXTT7=
EXTT8=
EXTT9=
EXTT10=
EXTT11=
EXTT12=
PLAYORDER=
